<svg aria-label="Messenger" class="_ab6-" fill="currentColor" height="24" role="img" viewBox="0 0 24 24" width="24"><path d="M12.003 1.131a10.487 10.487 0 00-10.87 10.57 10.194 10.194 0 003.412 7.771l.054 1.78a1.67 1.67 0 002.342 1.476l1.935-.872a11.767 11.767 0 003.127.416 10.488 10.488 0 0010.87-10.57 10.487 10.487 0 00-10.87-10.57zm5.786 9.001l-2.566 3.983a1.577 1.577 0 01-2.278.42l-2.452-1.84a.63.63 0 00-.759.002l-2.556 2.049a.659.659 0 01-.96-.874L8.783 9.89a1.576 1.576 0 012.277-.42l2.453 1.84a.63.63 0 00.758-.003l2.556-2.05a.659.659 0 01.961.874z"></path></svg>
